<svg width="32" height="32" viewBox="0 0 32 32" fill="none" xmlns="http://www.w3.org/2000/svg">
<path d="M23.3728 19.4752C23.3728 20.8192 23.7552 21.3552 24.7552 21.3552C26.984 21.3552 28.4032 18.5152 28.4032 13.792C28.4032 6.57279 23.1424 3.11679 16.5744 3.11679C9.81764 3.11679 3.67204 7.64799 3.67204 16.2112C3.67204 24.3904 9.04804 28.8448 17.304 28.8448C20.1072 28.8448 21.9888 28.5376 24.8672 27.5776L25.4848 30.1488C22.6432 31.072 19.6064 31.3392 17.2656 31.3392C6.43684 31.3392 0.636841 25.3872 0.636841 16.2096C0.636841 6.95519 7.35844 0.657593 16.6128 0.657593C26.2512 0.657593 31.3568 6.41759 31.3568 13.4832C31.3568 19.4736 29.4768 24.0432 23.5632 24.0432C20.8736 24.0432 19.1088 22.968 18.8784 20.5856C18.1872 23.2352 16.344 24.0432 13.8464 24.0432C10.5056 24.0432 7.70244 21.4688 7.70244 16.2864C7.70244 11.064 10.1616 7.83839 14.5776 7.83839C16.92 7.83839 18.3792 8.75999 19.0288 10.2192L20.144 8.18399H23.3696V19.4752H23.3728V19.4752ZM18.6512 14.4064C18.6512 12.296 17.0752 11.4112 15.7696 11.4112C14.3488 11.4112 12.776 12.5616 12.776 15.9424C12.776 18.6304 13.9664 20.128 15.7696 20.128C17.0368 20.128 18.6512 19.3216 18.6512 17.0944V14.4064Z" fill="#F8F8F8"/>
</svg>
