<svg width="32" height="37" viewBox="0 0 32 37" fill="none" xmlns="http://www.w3.org/2000/svg">
<g clip-path="url(#clip0_2_5)">
<path d="M16.0071 10.0714C11.4643 10.0714 7.79998 13.7357 7.79998 18.2785C7.79998 22.8214 11.4643 26.4857 16.0071 26.4857C20.55 26.4857 24.2143 22.8214 24.2143 18.2785C24.2143 13.7357 20.55 10.0714 16.0071 10.0714ZM16.0071 23.6143C13.0714 23.6143 10.6714 21.2214 10.6714 18.2785C10.6714 15.3357 13.0643 12.9428 16.0071 12.9428C18.95 12.9428 21.3428 15.3357 21.3428 18.2785C21.3428 21.2214 18.9428 23.6143 16.0071 23.6143V23.6143ZM26.4643 9.73569C26.4643 10.8 25.6071 11.65 24.55 11.65C23.4857 11.65 22.6357 10.7928 22.6357 9.73569C22.6357 8.67855 23.4928 7.82141 24.55 7.82141C25.6071 7.82141 26.4643 8.67855 26.4643 9.73569ZM31.9 11.6785C31.7785 9.11426 31.1928 6.84283 29.3143 4.97141C27.4428 3.09998 25.1714 2.51426 22.6071 2.38569C19.9643 2.23569 12.0428 2.23569 9.39998 2.38569C6.84284 2.50712 4.57141 3.09284 2.69284 4.96426C0.814271 6.83569 0.2357 9.10712 0.107129 11.6714C-0.0428711 14.3143 -0.0428711 22.2357 0.107129 24.8785C0.228557 27.4428 0.814271 29.7143 2.69284 31.5857C4.57141 33.4571 6.8357 34.0428 9.39998 34.1714C12.0428 34.3214 19.9643 34.3214 22.6071 34.1714C25.1714 34.05 27.4428 33.4643 29.3143 31.5857C31.1857 29.7143 31.7714 27.4428 31.9 24.8785C32.05 22.2357 32.05 14.3214 31.9 11.6785V11.6785ZM28.4857 27.7143C27.9285 29.1143 26.85 30.1928 25.4428 30.7571C23.3357 31.5928 18.3357 31.4 16.0071 31.4C13.6785 31.4 8.67141 31.5857 6.57141 30.7571C5.17141 30.2 4.09284 29.1214 3.52856 27.7143C2.69284 25.6071 2.8857 20.6071 2.8857 18.2785C2.8857 15.95 2.69998 10.9428 3.52856 8.84283C4.0857 7.44283 5.16427 6.36426 6.57141 5.79998C8.67855 4.96426 13.6785 5.15712 16.0071 5.15712C18.3357 5.15712 23.3428 4.97141 25.4428 5.79998C26.8428 6.35712 27.9214 7.43569 28.4857 8.84283C29.3214 10.95 29.1285 15.95 29.1285 18.2785C29.1285 20.6071 29.3214 25.6143 28.4857 27.7143Z" fill="white"/>
</g>
<defs>
<clipPath id="clip0_2_5">
<rect width="32" height="36.5714" fill="white"/>
</clipPath>
</defs>
</svg>
