<svg width="28" height="32" viewBox="0 0 28 32" fill="none" xmlns="http://www.w3.org/2000/svg">
<g clip-path="url(#clip0_2_10)">
<path d="M17.3401 22.2143V25.9821C17.3401 26.7798 17.1079 27.1786 16.6436 27.1786C16.3698 27.1786 16.102 27.0476 15.8401 26.7857V21.4107C16.102 21.1488 16.3698 21.0179 16.6436 21.0179C17.1079 21.0179 17.3401 21.4167 17.3401 22.2143ZM23.3758 22.2321V23.0536H21.7686V22.2321C21.7686 21.4226 22.0365 21.0179 22.5722 21.0179C23.1079 21.0179 23.3758 21.4226 23.3758 22.2321ZM6.12577 18.3393H8.03648V16.6607H2.46505V18.3393H4.34005V28.5H6.12577V18.3393ZM11.2686 28.5H12.8579V19.6786H11.2686V26.4286C10.9115 26.9286 10.5722 27.1786 10.2508 27.1786C10.0365 27.1786 9.91148 27.0536 9.87577 26.8036C9.86386 26.7679 9.85791 26.5595 9.85791 26.1786V19.6786H8.26862V26.6607C8.26862 27.244 8.31624 27.6786 8.41148 27.9643C8.55434 28.4048 8.89958 28.625 9.4472 28.625C10.0186 28.625 10.6258 28.2619 11.2686 27.5357V28.5ZM18.9293 25.8571V22.3393C18.9293 21.4702 18.8758 20.881 18.7686 20.5714C18.5662 19.9048 18.1436 19.5714 17.5008 19.5714C16.9055 19.5714 16.352 19.8929 15.8401 20.5357V16.6607H14.2508V28.5H15.8401V27.6429C16.3758 28.2976 16.9293 28.625 17.5008 28.625C18.1436 28.625 18.5662 28.2976 18.7686 27.6429C18.8758 27.3214 18.9293 26.7262 18.9293 25.8571ZM24.9651 25.6786V25.4464H23.3401C23.3401 26.0536 23.3281 26.4167 23.3043 26.5357C23.221 26.9643 22.9829 27.1786 22.5901 27.1786C22.0424 27.1786 21.7686 26.7679 21.7686 25.9464V24.3929H24.9651V22.5536C24.9651 21.6131 24.8043 20.9226 24.4829 20.4821C24.0186 19.875 23.3877 19.5714 22.5901 19.5714C21.7805 19.5714 21.1436 19.875 20.6793 20.4821C20.346 20.9226 20.1793 21.6131 20.1793 22.5536V25.6429C20.1793 26.5833 20.352 27.2738 20.6972 27.7143C21.1615 28.3214 21.8043 28.625 22.6258 28.625C23.4829 28.625 24.1258 28.3095 24.5543 27.6786C24.7686 27.3571 24.8936 27.0357 24.9293 26.7143C24.9531 26.6071 24.9651 26.2619 24.9651 25.6786ZM14.1079 9.375V5.625C14.1079 4.80357 13.852 4.39286 13.3401 4.39286C12.8281 4.39286 12.5722 4.80357 12.5722 5.625V9.375C12.5722 10.2083 12.8281 10.625 13.3401 10.625C13.852 10.625 14.1079 10.2083 14.1079 9.375ZM26.9472 22.7857C26.9472 25.5714 26.7924 27.6548 26.4829 29.0357C26.3162 29.7381 25.971 30.3274 25.4472 30.8036C24.9234 31.2798 24.3162 31.5536 23.6258 31.625C21.4353 31.875 18.1317 32 13.7151 32C9.29839 32 5.99482 31.875 3.80434 31.625C3.11386 31.5536 2.50374 31.2798 1.97398 30.8036C1.44422 30.3274 1.10196 29.7381 0.947196 29.0357C0.637672 27.7024 0.48291 25.619 0.48291 22.7857C0.48291 20 0.637672 17.9167 0.947196 16.5357C1.11386 15.8333 1.4591 15.244 1.98291 14.7679C2.50672 14.2917 3.11982 14.0119 3.8222 13.9286C6.00077 13.6905 9.29839 13.5714 13.7151 13.5714C18.1317 13.5714 21.4353 13.6905 23.6258 13.9286C24.3162 14.0119 24.9264 14.2917 25.4561 14.7679C25.9859 15.244 26.3281 15.8333 26.4829 16.5357C26.7924 17.869 26.9472 19.9524 26.9472 22.7857ZM9.12577 0H10.9472L8.78648 7.125V11.9643H7.00077V7.125C6.8341 6.24405 6.47101 4.98214 5.91148 3.33929C5.47101 2.1131 5.0841 1 4.75077 0H6.64362L7.91148 4.69643L9.12577 0ZM15.7329 5.94643V9.07143C15.7329 10.0357 15.5662 10.7381 15.2329 11.1786C14.7805 11.7857 14.1496 12.0893 13.3401 12.0893C12.5424 12.0893 11.9174 11.7857 11.4651 11.1786C11.1317 10.7262 10.9651 10.0238 10.9651 9.07143V5.94643C10.9651 4.99405 11.1317 4.29762 11.4651 3.85714C11.9174 3.25 12.5424 2.94643 13.3401 2.94643C14.1496 2.94643 14.7805 3.25 15.2329 3.85714C15.5662 4.29762 15.7329 4.99405 15.7329 5.94643ZM21.7151 3.05357V11.9643H20.0901V10.9821C19.4591 11.7202 18.846 12.0893 18.2508 12.0893C17.7031 12.0893 17.352 11.869 17.1972 11.4286C17.102 11.1429 17.0543 10.6964 17.0543 10.0893V3.05357H18.6793V9.60714C18.6793 10 18.6853 10.2083 18.6972 10.2321C18.7329 10.494 18.8579 10.625 19.0722 10.625C19.3936 10.625 19.7329 10.369 20.0901 9.85714V3.05357H21.7151Z" fill="#F8F8F8"/>
</g>
<defs>
<clipPath id="clip0_2_10">
<rect width="27.43" height="32" fill="white"/>
</clipPath>
</defs>
</svg>
